{
	"meshes":[{
		"name":"DEEBOT_9-材质",
		"primitives":[{
			"attributes":{
				"POSITION":1,
				"NORMAL":2,
				"TEXCOORD_0":3
			},
			"indices":0,
			"material":0
		}]
	},
	{
		"name":"DEEBOT_9-材质.1",
		"primitives":[{
			"attributes":{
				"POSITION":5,
				"NORMAL":6,
				"TEXCOORD_0":7
			},
			"indices":4,
			"material":1
		}]
	}],
	"asset":{
		"version":"2.0",
		"generator":"Created using the official Cinema 4D glTF Exporter 1.000x284978"
	},
	"scenes":[{
		"nodes":[0]
	}],
	"nodes":[{
		"name":"DEEBOT_9",
		"children":[1,
		2],
		"translation":[-4.689582056016661e-13,
		10.5,
		0.0],
		"rotation":[0.0,
		0.0,
		0.0,
		-1.0],
		"scale":[1.0,
		1.0,
		1.0]
	},
	{
		"name":"DEEBOT_9-材质",
		"mesh":0
	},
	{
		"name":"DEEBOT_9-材质.1",
		"mesh":1
	}],
	"accessors":[{
		"bufferView":0,
		"type":"SCALAR",
		"componentType":5123,
		"count":29100,
		"byteOffset":0,
		"min":[0],
		"max":[10215]
	},
	{
		"bufferView":1,
		"type":"VEC3",
		"componentType":5126,
		"count":10216,
		"byteOffset":0,
		"min":[-176.34927368164063,
		0.0,
		-175.685546875],
		"max":[176.34927368164063,
		83.38556671142578,
		175.685546875]
	},
	{
		"bufferView":1,
		"type":"VEC3",
		"componentType":5126,
		"count":10216,
		"byteOffset":12,
		"min":[-1.0,
		-1.0,
		-1.0],
		"max":[1.0,
		1.0,
		1.0]
	},
	{
		"bufferView":1,
		"type":"VEC2",
		"componentType":5126,
		"count":10216,
		"byteOffset":24,
		"min":[-1.3968101739883423,
		-0.33039331436157229],
		"max":[1.330238938331604,
		1.0532615184783936]
	},
	{
		"bufferView":2,
		"type":"SCALAR",
		"componentType":5123,
		"count":20868,
		"byteOffset":0,
		"min":[0],
		"max":[7363]
	},
	{
		"bufferView":3,
		"type":"VEC3",
		"componentType":5126,
		"count":7364,
		"byteOffset":0,
		"min":[-66.81257629394531,
		24.21468734741211,
		-103.90753936767578],
		"max":[18.169981002807618,
		83.48556518554688,
		174.12603759765626]
	},
	{
		"bufferView":3,
		"type":"VEC3",
		"componentType":5126,
		"count":7364,
		"byteOffset":12,
		"min":[-1.0,
		-1.0,
		-1.0],
		"max":[1.0,
		1.0,
		1.0]
	},
	{
		"bufferView":3,
		"type":"VEC2",
		"componentType":5126,
		"count":7364,
		"byteOffset":24,
		"min":[0.0,
		0.0],
		"max":[1.0,
		1.0]
	}],
	"bufferViews":[{
		"buffer":0,
		"byteOffset":0,
		"byteLength":58200,
		"target":34963
	},
	{
		"buffer":0,
		"byteOffset":58200,
		"byteLength":326912,
		"target":34962,
		"byteStride":32
	},
	{
		"buffer":1,
		"byteOffset":0,
		"byteLength":41736,
		"target":34963
	},
	{
		"buffer":1,
		"byteOffset":41736,
		"byteLength":235648,
		"target":34962,
		"byteStride":32
	}],
	"buffers":[{
		"uri":"data:application/octet-stream;base64,",
		"byteLength":385112
	},
	{
		"uri":"data:application/octet-stream;base64,",
		"byteLength":277384
	}],
	"materials":[{
		"pbrMetallicRoughness":{
			"baseColorFactor":[0.1,
			0.1,
			0.1,
			1.0],
			"metallicFactor":0.0,
			"roughnessFactor":0.5
		},
		"emissiveFactor":[0.0,
		0.0,
		0.0],
		"alphaMode":"OPAQUE",
		"doubleSided":false,
		"name":"材质"
	},
	{
		"pbrMetallicRoughness":{
			"baseColorFactor":[0.8,
			0.8,
			0.8,
			1.0],
			"metallicFactor":0.0,
			"roughnessFactor":0.5
		},
		"emissiveFactor":[0.0,
		0.0,
		0.0],
		"alphaMode":"OPAQUE",
		"doubleSided":false,
		"name":"材质.1"
	}]
}