{
	"asset":{
		"version":"2.0",
		"generator":"Created using the official Cinema 4D glTF Exporter 1.000x284978"
	},
	"scenes":[{
		"nodes":[0]
	}],
	"nodes":[{
		"name":"L形沙发（145cm_270cm）左妃",
		"children":[1]
	},
	{
		"name":"L形沙发（145cm_270cm）左妃-材质",
		"mesh":0
	}],
	"images":[{
		"uri":"data:image/jpeg;base64,"
	}],
	"meshes":[{
		"name":"L形沙发（145cm_270cm）左妃-材质",
		"primitives":[{
			"attributes":{
				"POSITION":1,
				"NORMAL":2,
				"TEXCOORD_0":3
			},
			"indices":0,
			"material":0
		}]
	}],
	"accessors":[{
		"bufferView":0,
		"type":"SCALAR",
		"componentType":5123,
		"count":85416,
		"byteOffset":0,
		"min":[0],
		"max":[17047]
	},
	{
		"bufferView":1,
		"type":"VEC3",
		"componentType":5126,
		"count":17048,
		"byteOffset":0,
		"min":[-135.0,
		-7.105427357601002e-15,
		-72.5],
		"max":[135.0,
		75.0,
		72.5]
	},
	{
		"bufferView":1,
		"type":"VEC3",
		"componentType":5126,
		"count":17048,
		"byteOffset":12,
		"min":[-1.0,
		-1.0,
		-1.0],
		"max":[1.0,
		1.0,
		1.0]
	},
	{
		"bufferView":1,
		"type":"VEC2",
		"componentType":5126,
		"count":17048,
		"byteOffset":24,
		"min":[0.0,
		-0.23499998450279237],
		"max":[1.0,
		1.0]
	}],
	"bufferViews":[{
		"buffer":0,
		"byteOffset":0,
		"byteLength":170832,
		"target":34963
	},
	{
		"buffer":0,
		"byteOffset":170832,
		"byteLength":545536,
		"target":34962,
		"byteStride":32
	}],
	"buffers":[{
		"uri":"data:application/octet-stream;base64,",
		"byteLength":716368
	}],
	"samplers":[{
		"magFilter":9729,
		"minFilter":9729,
		"wrapS":10497,
		"wrapT":10497
	}],
	"textures":[{
		"sampler":0,
		"source":0
	}],
	"materials":[{
		"pbrMetallicRoughness":{
			"baseColorTexture":{
				"index":0
			},
			"baseColorFactor":[0.8,
			0.8,
			0.8,
			1.0],
			"metallicFactor":0.0,
			"roughnessFactor":0.5
		},
		"emissiveFactor":[0.0,
		0.0,
		0.0],
		"alphaMode":"OPAQUE",
		"doubleSided":false,
		"name":"材质"
	}]
}