{
	"meshes":[{
		"name":"omni_master基站-高光黑",
		"primitives":[{
			"attributes":{
				"POSITION":1,
				"NORMAL":2,
				"TEXCOORD_0":3
			},
			"indices":0,
			"material":0
		}]
	},
	{
		"name":"omni_master基站-灰色",
		"primitives":[{
			"attributes":{
				"POSITION":5,
				"NORMAL":6,
				"TEXCOORD_0":7
			},
			"indices":4,
			"material":1
		}]
	}],
	"asset":{
		"version":"2.0",
		"generator":"Created using the official Cinema 4D glTF Exporter 1.000x284978"
	},
	"scenes":[{
		"nodes":[0]
	}],
	"nodes":[{
		"name":"omni_master基站",
		"children":[1,
		2]
	},
	{
		"name":"omni_master基站-高光黑",
		"mesh":0
	},
	{
		"name":"omni_master基站-灰色",
		"mesh":1
	}],
	"accessors":[{
		"bufferView":0,
		"type":"SCALAR",
		"componentType":5123,
		"count":5274,
		"byteOffset":0,
		"min":[0],
		"max":[1805]
	},
	{
		"bufferView":1,
		"type":"VEC3",
		"componentType":5126,
		"count":1806,
		"byteOffset":0,
		"min":[-20.824398040771486,
		0.0,
		-22.381772994995118],
		"max":[20.824398040771486,
		57.70500183105469,
		22.381772994995118]
	},
	{
		"bufferView":1,
		"type":"VEC3",
		"componentType":5126,
		"count":1806,
		"byteOffset":12,
		"min":[-1.0,
		-1.0,
		-1.0],
		"max":[1.0,
		1.0,
		1.0]
	},
	{
		"bufferView":1,
		"type":"VEC2",
		"componentType":5126,
		"count":1806,
		"byteOffset":24,
		"min":[0.0,
		0.0],
		"max":[1.0,
		1.0]
	},
	{
		"bufferView":2,
		"type":"SCALAR",
		"componentType":5123,
		"count":5178,
		"byteOffset":0,
		"min":[0],
		"max":[1783]
	},
	{
		"bufferView":3,
		"type":"VEC3",
		"componentType":5126,
		"count":1784,
		"byteOffset":0,
		"min":[-20.824398040771486,
		4.6568970901716969e-11,
		-22.381772994995118],
		"max":[8.528963088989258,
		57.724998474121097,
		22.381772994995118]
	},
	{
		"bufferView":3,
		"type":"VEC3",
		"componentType":5126,
		"count":1784,
		"byteOffset":12,
		"min":[-1.0,
		-1.0,
		-1.0],
		"max":[1.0,
		1.0,
		1.0]
	},
	{
		"bufferView":3,
		"type":"VEC2",
		"componentType":5126,
		"count":1784,
		"byteOffset":24,
		"min":[0.0,
		0.0],
		"max":[1.0,
		1.0]
	}],
	"bufferViews":[{
		"buffer":0,
		"byteOffset":0,
		"byteLength":10548,
		"target":34963
	},
	{
		"buffer":0,
		"byteOffset":10548,
		"byteLength":57792,
		"target":34962,
		"byteStride":32
	},
	{
		"buffer":1,
		"byteOffset":0,
		"byteLength":10356,
		"target":34963
	},
	{
		"buffer":1,
		"byteOffset":10356,
		"byteLength":57088,
		"target":34962,
		"byteStride":32
	}],
	"buffers":[{
		"uri":"data:application/octet-stream;base64,",
		"byteLength":68340
	},
	{
		"uri":"data:application/octet-stream;base64,",
		"byteLength":67444
	}],
	"materials":[{
		"pbrMetallicRoughness":{
			"baseColorFactor":[0.17,
			0.17,
			0.17,
			1.0],
			"metallicFactor":0.0,
			"roughnessFactor":0.5
		},
		"emissiveFactor":[0.0,
		0.0,
		0.0],
		"alphaMode":"OPAQUE",
		"doubleSided":false,
		"name":"高光黑"
	},
	{
		"pbrMetallicRoughness":{
			"baseColorFactor":[0.6900000000000001,
			0.6900000000000001,
			0.6900000000000001,
			1.0],
			"metallicFactor":0.0,
			"roughnessFactor":0.5
		},
		"emissiveFactor":[0.0,
		0.0,
		0.0],
		"alphaMode":"OPAQUE",
		"doubleSided":false,
		"name":"灰色"
	}]
}