{
	"meshes":[{
		"name":"单人沙发（64cm_63cm）",
		"primitives":[{
			"attributes":{
				"POSITION":1,
				"NORMAL":2,
				"TEXCOORD_0":3
			},
			"indices":0
		}]
	}],
	"asset":{
		"version":"2.0",
		"generator":"Created using the official Cinema 4D glTF Exporter 1.000x284978"
	},
	"scenes":[{
		"nodes":[0]
	}],
	"nodes":[{
		"name":"单人沙发（64cm_63cm）",
		"mesh":0
	}],
	"accessors":[{
		"bufferView":0,
		"type":"SCALAR",
		"componentType":5123,
		"count":13212,
		"byteOffset":0,
		"min":[0],
		"max":[4277]
	},
	{
		"bufferView":1,
		"type":"VEC3",
		"componentType":5126,
		"count":4278,
		"byteOffset":0,
		"min":[-31.5,
		0.0,
		-32.0],
		"max":[31.5,
		74.32352447509766,
		32.0]
	},
	{
		"bufferView":1,
		"type":"VEC3",
		"componentType":5126,
		"count":4278,
		"byteOffset":12,
		"min":[-1.0,
		-1.0,
		-1.0],
		"max":[1.0,
		1.0,
		1.0]
	},
	{
		"bufferView":1,
		"type":"VEC2",
		"componentType":5126,
		"count":4278,
		"byteOffset":24,
		"min":[-0.02541637420654297,
		-0.036896444857120517],
		"max":[1.025416374206543,
		1.033940076828003]
	}],
	"bufferViews":[{
		"buffer":0,
		"byteOffset":0,
		"byteLength":26424,
		"target":34963
	},
	{
		"buffer":0,
		"byteOffset":26424,
		"byteLength":136896,
		"target":34962,
		"byteStride":32
	}],
	"buffers":[{
		"uri":"data:application/octet-stream;base64,",
		"byteLength":163320
	}]
}