{
	"meshes":[{
		"name":"双人床（150cm_200cm）",
		"primitives":[{
			"attributes":{
				"POSITION":1,
				"NORMAL":2,
				"TEXCOORD_0":3
			},
			"indices":0
		}]
	}],
	"asset":{
		"version":"2.0",
		"generator":"Created using the official Cinema 4D glTF Exporter 1.000x284978"
	},
	"scenes":[{
		"nodes":[0]
	}],
	"nodes":[{
		"name":"双人床（150cm_200cm）",
		"translation":[0.6146539449691773,
		1.4210854715202005e-14,
		-1.4210854715202005e-14],
		"rotation":[0.0,
		0.0,
		0.0,
		-1.0],
		"scale":[1.0,
		1.0,
		1.0],
		"mesh":0
	}],
	"accessors":[{
		"bufferView":0,
		"type":"SCALAR",
		"componentType":5123,
		"count":23904,
		"byteOffset":0,
		"min":[0],
		"max":[5166]
	},
	{
		"bufferView":1,
		"type":"VEC3",
		"componentType":5126,
		"count":5167,
		"byteOffset":0,
		"min":[-83.02449798583985,
		-7.105427357601002e-15,
		-100.0],
		"max":[83.02449798583985,
		76.0,
		100.0]
	},
	{
		"bufferView":1,
		"type":"VEC3",
		"componentType":5126,
		"count":5167,
		"byteOffset":12,
		"min":[-1.0,
		-1.0,
		-1.0],
		"max":[1.0,
		1.0,
		1.0]
	},
	{
		"bufferView":1,
		"type":"VEC2",
		"componentType":5126,
		"count":5167,
		"byteOffset":24,
		"min":[-0.046062491834163669,
		-0.8678600788116455],
		"max":[1.7071068286895753,
		1.0419678688049317]
	}],
	"bufferViews":[{
		"buffer":0,
		"byteOffset":0,
		"byteLength":47808,
		"target":34963
	},
	{
		"buffer":0,
		"byteOffset":47808,
		"byteLength":165344,
		"target":34962,
		"byteStride":32
	}],
	"buffers":[{
		"uri":"data:application/octet-stream;base64,",
		"byteLength":213152
	}]
}