{
	"meshes":[{
		"name":"床头柜（45cm_36cm）",
		"primitives":[{
			"attributes":{
				"POSITION":1,
				"NORMAL":2,
				"TEXCOORD_0":3
			},
			"indices":0
		}]
	}],
	"asset":{
		"version":"2.0",
		"generator":"Created using the official Cinema 4D glTF Exporter 1.000x284978"
	},
	"scenes":[{
		"nodes":[0]
	}],
	"nodes":[{
		"name":"床头柜（45cm_36cm）",
		"mesh":0
	}],
	"accessors":[{
		"bufferView":0,
		"type":"SCALAR",
		"componentType":5123,
		"count":3030,
		"byteOffset":0,
		"min":[0],
		"max":[1003]
	},
	{
		"bufferView":1,
		"type":"VEC3",
		"componentType":5126,
		"count":1004,
		"byteOffset":0,
		"min":[-22.5,
		0.0,
		-18.0006103515625],
		"max":[22.5,
		50.0,
		18.0006103515625]
	},
	{
		"bufferView":1,
		"type":"VEC3",
		"componentType":5126,
		"count":1004,
		"byteOffset":12,
		"min":[-1.0,
		-1.0,
		-1.0],
		"max":[1.0,
		1.0,
		1.0]
	},
	{
		"bufferView":1,
		"type":"VEC2",
		"componentType":5126,
		"count":1004,
		"byteOffset":24,
		"min":[0.0,
		-0.030346274375915529],
		"max":[1.0027860403060914,
		1.0142855644226075]
	}],
	"bufferViews":[{
		"buffer":0,
		"byteOffset":0,
		"byteLength":6060,
		"target":34963
	},
	{
		"buffer":0,
		"byteOffset":6060,
		"byteLength":32128,
		"target":34962,
		"byteStride":32
	}],
	"buffers":[{
		"uri":"data:application/octet-stream;base64,",
		"byteLength":38188
	}]
}