{
	"meshes":[{
		"name":"茶几（40cm_80cm）",
		"primitives":[{
			"attributes":{
				"POSITION":1,
				"NORMAL":2,
				"TEXCOORD_0":3
			},
			"indices":0
		}]
	}],
	"asset":{
		"version":"2.0",
		"generator":"Created using the official Cinema 4D glTF Exporter 1.000x284978"
	},
	"scenes":[{
		"nodes":[0]
	}],
	"nodes":[{
		"name":"茶几（40cm_80cm）",
		"mesh":0
	}],
	"accessors":[{
		"bufferView":0,
		"type":"SCALAR",
		"componentType":5123,
		"count":36540,
		"byteOffset":0,
		"min":[0],
		"max":[8829]
	},
	{
		"bufferView":1,
		"type":"VEC3",
		"componentType":5126,
		"count":8830,
		"byteOffset":0,
		"min":[-40.0,
		0.0,
		-20.0],
		"max":[40.0,
		35.0,
		20.0]
	},
	{
		"bufferView":1,
		"type":"VEC3",
		"componentType":5126,
		"count":8830,
		"byteOffset":12,
		"min":[-0.9999998211860657,
		-1.0,
		-0.9999999403953552],
		"max":[0.9999998807907105,
		1.0,
		0.9999999403953552]
	},
	{
		"bufferView":1,
		"type":"VEC2",
		"componentType":5126,
		"count":8830,
		"byteOffset":24,
		"min":[0.0,
		0.0],
		"max":[1.0,
		1.0]
	}],
	"bufferViews":[{
		"buffer":0,
		"byteOffset":0,
		"byteLength":73080,
		"target":34963
	},
	{
		"buffer":0,
		"byteOffset":73080,
		"byteLength":282560,
		"target":34962,
		"byteStride":32
	}],
	"buffers":[{
		"uri":"data:application/octet-stream;base64,",
		"byteLength":355640
	}]
}